<svg width="24" height="24" viewBox="0 0 24 24" fill="none" xmlns="http://www.w3.org/2000/svg">
<path fill-rule="evenodd" clip-rule="evenodd" d="M13 4C13 5.10457 12.1046 6 11 6C9.89543 6 9 5.10457 9 4C9 2.89543 9.89543 2 11 2C12.1046 2 13 2.89543 13 4ZM11.9933 7.88338C11.9355 7.38604 11.5128 7 11 7C10.4477 7 10 7.44772 10 8V10V13L10.0067 13.1166C10.0645 13.614 10.4872 14 11 14H15.713L18.2884 18.6082L18.3509 18.7062C18.6423 19.1104 19.1959 19.2424 19.6431 18.9966L21.4734 18.0767L21.5724 18.0146C21.9804 17.7244 22.1151 17.1681 21.868 16.7187L21.806 16.6197C21.5251 16.2248 20.9949 16.0859 20.5536 16.3014C20.5483 16.304 20.4183 16.3639 20.2534 16.4398C19.9607 16.5746 19.5582 16.7599 19.549 16.765L17.1725 12.5121L17.108 12.4113C16.9212 12.1548 16.6216 12 16.2996 12H12V11H14L14.1166 10.9933C14.614 10.9355 15 10.5128 15 10C15 9.44772 14.5523 9 14 9H12V8L11.9933 7.88338ZM2 16C2 19.3137 4.68629 22 8 22C11.3137 22 14 19.3137 14 16H12L11.9951 16.1996C11.8911 18.316 10.1422 20 8 20C5.79086 20 4 18.2091 4 16C4 13.7909 5.79086 12 8 12V10L7.77506 10.0041C4.56557 10.1224 2 12.7616 2 16Z" fill="#222B45"/>
</svg>
