<svg width="24" height="24" viewBox="0 0 24 24" fill="none" xmlns="http://www.w3.org/2000/svg">
<path fill-rule="evenodd" clip-rule="evenodd" d="M16.0186 10.6787L13.3236 7.98367L15.2716 6.03467L17.9656 8.72867L16.0186 10.6787ZM9.07961 17.6247L6.10261 17.8957L6.36661 14.9397L11.9836 9.32267L14.6796 12.0187L9.07961 17.6247ZM19.4036 7.33767L19.4026 7.33667L16.6646 4.59867C15.9236 3.85967 14.6506 3.82467 13.9486 4.52967L4.95261 13.5257C4.62661 13.8507 4.42461 14.2827 4.38261 14.7397L4.00361 18.9097C3.97761 19.2047 4.08261 19.4967 4.29261 19.7067C4.48161 19.8957 4.73661 19.9997 4.99961 19.9997C5.03061 19.9997 5.06061 19.9987 5.09061 19.9957L9.26061 19.6167C9.71861 19.5747 10.1496 19.3737 10.4746 19.0487L19.4716 10.0517C20.1996 9.32167 20.1686 8.10367 19.4036 7.33767Z" fill="#222B45"/>
</svg>
