<svg width="24" height="24" viewBox="0 0 24 24" fill="none" xmlns="http://www.w3.org/2000/svg">
<path fill-rule="evenodd" clip-rule="evenodd" d="M8.95966 7.40085C8.98611 7.27131 9 4.13725 9 4C9 3.448 9.447 3 10 3C10.553 3 11 3.448 11 4C11 4.14355 10.9924 7.28536 10.9776 7.42504C10.8004 9.09601 9.59055 10.4628 8 10.8735V19.9474C8 20.5263 7.55 21 7 21C6.45 21 6 20.5263 6 19.9474V10.8735C4.38815 10.4573 3.16728 9.05923 3.01585 7.35775C3.00536 7.23988 3 4.12056 3 4C3 3.448 3.447 3 4 3C4.553 3 5 3.448 5 4C5 4.1097 5.00887 7.21736 5.02594 7.3223C5.12382 7.92427 5.49128 8.43683 6 8.73169V4.05263C6 3.47368 6.45 3 7 3C7.55 3 8 3.47368 8 4.05263V8.73169C8.48645 8.44974 8.84372 7.96874 8.95966 7.40085ZM17 14.9855V19.9474C17 20.5263 16.55 21 16 21C15.45 21 15 20.5263 15 19.9474V4.05263C15 3.47368 15.45 3 16 3C16.0683 3 16.135 3.0073 16.1996 3.0212C18.658 3.3839 20.7354 7.43302 20.7636 10.4385L20.8266 14.0054C20.8287 14.2734 20.724 14.5322 20.5345 14.7217C20.3436 14.9127 20.0848 15.0173 19.8161 15.0145L17 14.9855ZM17 12.9852L18.817 13.0042L18.7639 10.4583C18.7502 8.93646 18.0629 6.76215 17 5.78094V12.9852Z" fill="#222B45"/>
</svg>
