<svg width="24" height="24" viewBox="0 0 24 24" fill="none" xmlns="http://www.w3.org/2000/svg">
<path fill-rule="evenodd" clip-rule="evenodd" d="M14.5 15.9082V8.0142L19.322 11.9982L14.5 15.9082ZM6.5 15.9082V8.0142L11.322 11.9982L6.5 15.9082ZM20.858 10.6742L15.759 6.4602C15.15 5.9582 14.282 5.8562 13.55 6.2012C12.902 6.5072 12.5 7.1142 12.5 7.7872V10.3782L7.759 6.4602C7.15 5.9582 6.281 5.8562 5.55 6.2012C4.902 6.5072 4.5 7.1142 4.5 7.7872V16.2132C4.5 16.8862 4.902 17.4932 5.55 17.7992C5.839 17.9342 6.149 18.0012 6.456 18.0012C6.927 18.0012 7.391 17.8442 7.759 17.5392L12.5 13.6232V16.2132C12.5 16.8862 12.902 17.4932 13.55 17.7992C13.839 17.9342 14.149 18.0012 14.456 18.0012C14.927 18.0012 15.391 17.8442 15.759 17.5392L20.859 13.3262C21.266 12.9902 21.5 12.5062 21.5 12.0002C21.5 11.4942 21.266 11.0102 20.858 10.6742Z" fill="#222B45"/>
</svg>
