<svg width="24" height="24" viewBox="0 0 24 24" fill="none" xmlns="http://www.w3.org/2000/svg">
<path fill-rule="evenodd" clip-rule="evenodd" d="M16.2402 22C15.6882 22 15.2402 21.553 15.2402 21V18.401C15.2872 17.738 15.0882 17.161 14.6972 16.742C14.4382 16.466 14.3582 16.068 14.4882 15.714C14.6182 15.359 14.9362 15.108 15.3122 15.065C17.7462 14.783 20.0002 13.947 20.0002 9.774C20.0002 8.974 19.7682 8.203 19.3292 7.547C18.9282 6.949 18.7822 6.22 18.9162 5.494C19.0042 5.021 18.9992 4.54 18.9042 4.075C18.5002 4.195 17.8082 4.48 16.8112 5.174C16.5662 5.344 16.2552 5.395 15.9692 5.315C14.1652 4.808 12.2582 4.808 10.4532 5.315C10.1662 5.395 9.85722 5.344 9.61222 5.174C8.62522 4.487 7.93722 4.201 7.51722 4.083C7.42322 4.544 7.41922 5.021 7.50622 5.491C7.63922 6.213 7.48822 6.95 7.08022 7.568C6.64622 8.227 6.41922 8.997 6.42322 9.797C6.42322 13.691 8.30222 14.73 11.1232 15.093C11.4952 15.141 11.8092 15.393 11.9372 15.746C12.0642 16.099 11.9832 16.493 11.7272 16.767C11.3402 17.182 11.1412 17.753 11.1802 18.334L11.1812 19.122C11.1832 19.162 11.1832 19.202 11.1812 19.242L11.1822 21C11.1822 21.553 10.7352 22 10.1822 22C9.63022 22 9.18222 21.553 9.18222 21V20.429C6.49722 20.779 4.96722 19.34 3.90622 18.34C3.46622 17.927 3.05222 17.536 2.74922 17.457C2.21422 17.318 1.89322 16.772 2.03222 16.238C2.17122 15.704 2.71722 15.378 3.25122 15.521C4.05022 15.729 4.64622 16.29 5.27722 16.884C6.29922 17.847 7.26922 18.759 9.18222 18.404V18.401C9.14522 17.872 9.22422 17.33 9.40722 16.817C7.35322 16.305 4.42322 14.812 4.42322 9.802C4.41722 8.61 4.75922 7.456 5.41022 6.467C5.53222 6.282 5.57822 6.065 5.53922 5.854C5.33922 4.771 5.45422 3.659 5.87422 2.643C5.98822 2.367 6.21922 2.156 6.50422 2.068C6.83522 1.966 8.05522 1.771 10.3662 3.271C12.2372 2.822 14.1862 2.822 16.0562 3.271C18.3682 1.771 19.5872 1.965 19.9182 2.068C20.2032 2.156 20.4342 2.367 20.5482 2.643C20.9692 3.661 21.0842 4.772 20.8832 5.858C20.8442 6.067 20.8832 6.272 20.9912 6.435C21.6512 7.422 22.0002 8.576 22.0002 9.774C22.0002 14.838 19.0772 16.313 17.0202 16.807C17.2042 17.336 17.2812 17.905 17.2372 18.478L17.2402 21C17.2402 21.553 16.7922 22 16.2402 22Z" fill="#222B45"/>
</svg>
