<svg width="24" height="24" viewBox="0 0 24 24" fill="none" xmlns="http://www.w3.org/2000/svg">
<path fill-rule="evenodd" clip-rule="evenodd" d="M14.0251 2.40381L11.9038 4.52513C11.1228 5.30618 11.1228 6.5725 11.9038 7.35355L13.6235 9.07323C13.5033 9.12211 13.3906 9.19536 13.293 9.293L9.293 13.293C9.23381 13.3522 9.18358 13.4169 9.14231 13.4855L7.7071 12.0503C6.92605 11.2692 5.65972 11.2692 4.87868 12.0503L2.75736 14.1716C1.97631 14.9526 1.97631 16.219 2.75736 17L7 21.2426C7.78105 22.0237 9.04738 22.0237 9.82842 21.2426L11.9497 19.1213C12.7308 18.3403 12.7308 17.0739 11.9497 16.2929L10.5145 14.8576C10.5831 14.8163 10.6479 14.7661 10.707 14.707L14.707 10.707C14.8046 10.6094 14.8779 10.4967 14.9268 10.3765L16.1464 11.5962C16.9275 12.3772 18.1938 12.3772 18.9749 11.5962L21.0962 9.47487C21.8772 8.69383 21.8772 7.4275 21.0962 6.64645L16.8536 2.40381C16.0725 1.62276 14.8062 1.62276 14.0251 2.40381ZM13.318 5.93934L15.4393 3.81802L19.682 8.06066L17.5607 10.182L13.318 5.93934ZM6.29289 13.4645L4.17157 15.5858L8.41421 19.8284L10.5355 17.7071L6.29289 13.4645Z" fill="#222B45"/>
</svg>
