<svg width="24" height="24" viewBox="0 0 24 24" fill="none" xmlns="http://www.w3.org/2000/svg">
<path d="M12 4C7.589 4 4 7.589 4 12C4 16.411 7.589 20 12 20C16.411 20 20 16.411 20 12C20 7.589 16.411 4 12 4ZM12 22C6.486 22 2 17.514 2 12C2 6.486 6.486 2 12 2C17.514 2 22 6.486 22 12C22 17.514 17.514 22 12 22ZM11 9H15C15.5523 9 16 8.55228 16 8C16 7.44772 15.5523 7 15 7H13V6C13 5.44772 12.5523 5 12 5C11.4477 5 11 5.44772 11 6V7C9.34315 7 8 8.34315 8 10C8 11.6569 9.34315 13 11 13H13C13.5523 13 14 13.4477 14 14C14 14.5523 13.5523 15 13 15H9C8.44772 15 8 15.4477 8 16C8 16.5523 8.44772 17 9 17H11V18C11 18.5523 11.4477 19 12 19C12.5523 19 13 18.5523 13 18V17C14.6569 17 16 15.6569 16 14C16 12.3431 14.6569 11 13 11H11C10.4477 11 10 10.5523 10 10C10 9.44772 10.4477 9 11 9Z" fill="#222B45"/>
</svg>
