<svg width="24" height="24" viewBox="0 0 24 24" fill="none" xmlns="http://www.w3.org/2000/svg">
<path fill-rule="evenodd" clip-rule="evenodd" d="M9 9C9 8.45 9.45 8 10 8C10.55 8 11 8.45 11 9V15C11 15.55 10.55 16 10 16C9.45 16 9 15.55 9 15V9ZM12.9995 9C12.9995 8.45 13.4495 8 13.9995 8C14.5495 8 14.9995 8.45 14.9995 9V15C14.9995 15.55 14.5495 16 13.9995 16C13.4495 16 12.9995 15.55 12.9995 15V9ZM12 20C7.589 20 4 16.411 4 12C4 7.589 7.589 4 12 4C16.411 4 20 7.589 20 12C20 16.411 16.411 20 12 20ZM12 2C6.486 2 2 6.486 2 12C2 17.514 6.486 22 12 22C17.514 22 22 17.514 22 12C22 6.486 17.514 2 12 2Z" fill="#222B45"/>
</svg>
