<svg width="24" height="24" viewBox="0 0 24 24" fill="none" xmlns="http://www.w3.org/2000/svg">
<path fill-rule="evenodd" clip-rule="evenodd" d="M19.0156 6.6543V6.6563V6.6543ZM8.5126 17.9973C8.5366 17.9973 8.5626 17.9983 8.5866 18.0003C14.2816 17.9633 17.6806 13.6123 17.6806 9.4063C17.6806 9.0243 17.8766 8.7773 18.0506 8.5583C18.2086 8.3583 18.4536 8.0503 18.6716 7.6063C17.8786 7.5983 17.1706 7.2463 16.7586 6.7643C16.3276 6.3033 15.7086 6.0213 15.0406 6.0013C14.3966 5.9753 13.7396 6.2233 13.2516 6.6863C12.6016 7.3033 12.3236 8.2343 12.5256 9.1143L12.7866 10.2533L11.6206 10.3353C8.6046 10.5613 6.5146 9.2703 5.0796 7.9343C5.0856 9.9543 5.7566 12.6493 8.8066 14.3873L9.7646 14.9333L9.1276 15.8343C8.4646 16.7733 7.4666 17.3723 6.4506 17.7553C7.1216 17.9153 7.8116 17.9973 8.4996 17.9973H8.5116H8.5126ZM8.5126 20.0003C8.4866 20.0003 8.4586 19.9993 8.4326 19.9973C6.8296 19.9863 5.2216 19.6133 3.7776 18.9143C3.2346 18.6503 2.9276 18.0723 3.0146 17.4723C3.1026 16.8653 3.5686 16.3893 4.1726 16.2913C5.2176 16.1193 6.0846 15.8133 6.7126 15.4043C2.8356 12.5053 2.9376 8.1653 3.1886 6.3273C3.2626 5.7893 3.6456 5.3403 4.1636 5.1833C4.6896 5.0233 5.2346 5.1833 5.5946 5.5923C7.1306 7.3333 8.6656 8.2083 10.4656 8.3413C10.5176 7.1763 11.0136 6.0533 11.8746 5.2353C12.7516 4.4023 13.8986 3.9663 15.1026 4.0023C16.3076 4.0393 17.4256 4.5473 18.2496 5.4323C18.3336 5.5283 18.6476 5.7023 19.0266 5.5323C19.5236 5.3093 20.0886 5.3833 20.5006 5.7273C20.9116 6.0683 21.0866 6.6053 20.9586 7.1283C20.6356 8.4593 19.9976 9.3173 19.6756 9.7283C19.5076 14.8333 15.3596 20.0003 8.5126 20.0003Z" fill="#222B45"/>
</svg>
