<svg width="24" height="24" viewBox="0 0 24 24" fill="none" xmlns="http://www.w3.org/2000/svg">
<path fill-rule="evenodd" clip-rule="evenodd" d="M14 5.899L8.899 9.397C8.732 9.51 8.535 9.572 8.333 9.572H4V14.429H8.333C8.535 14.429 8.732 14.491 8.899 14.604L14 18.102V5.899ZM16 4.001V20.001C16 20.372 15.794 20.712 15.466 20.885C15.32 20.962 15.16 21.001 15 21.001C14.802 21.001 14.604 20.942 14.435 20.826L8.023 16.429H3C2.448 16.429 2 15.982 2 15.429V8.572C2 8.019 2.448 7.572 3 7.572H8.023L14.435 3.175C14.741 2.965 15.138 2.942 15.466 3.116C15.794 3.289 16 3.629 16 4.001ZM19.779 15.628C19.582 15.873 19.292 16.001 19 16.001C18.779 16.001 18.558 15.928 18.373 15.78C17.943 15.433 17.875 14.804 18.221 14.374C19.256 13.087 19.256 10.914 18.221 9.628C17.875 9.197 17.943 8.568 18.373 8.221C18.803 7.877 19.433 7.944 19.779 8.374C21.416 10.408 21.416 13.593 19.779 15.628Z" fill="#222B45"/>
</svg>
