<svg width="20" height="18" viewBox="0 0 20 18" fill="none" xmlns="http://www.w3.org/2000/svg">
<path fill-rule="evenodd" clip-rule="evenodd" d="M19.8676 9.49762C19.4526 10.2206 18.4766 11.7386 16.9546 13.1266L15.5436 11.7156C16.6036 10.7646 17.3706 9.71862 17.8266 9.00462C16.8946 7.58562 14.0716 3.89362 9.78063 4.00262C9.18063 4.01762 8.61763 4.11162 8.08163 4.25362L6.50163 2.67362C7.47363 2.28962 8.54463 2.03362 9.72963 2.00362C15.7046 1.81662 19.2296 7.39062 19.8676 8.50262C20.0436 8.81062 20.0436 9.18962 19.8676 9.49762ZM11.9176 13.7466L13.4976 15.3266C12.5266 15.7106 11.4546 15.9666 10.2706 15.9966C10.1886 15.9986 10.1066 15.9996 10.0246 15.9996C4.16163 15.9996 0.761628 10.5946 0.132628 9.49762C-0.0443721 9.18962 -0.0443721 8.81062 0.132628 8.50262C0.546628 7.77962 1.52263 6.26162 3.04463 4.87262L4.45563 6.28462C3.39563 7.23562 2.62963 8.28162 2.17263 8.99562C3.10463 10.4146 5.91463 14.0976 10.2196 13.9976C10.8196 13.9826 11.3826 13.8886 11.9176 13.7466ZM9.99963 10.4996C9.17263 10.4996 8.49963 9.82762 8.49963 8.99962C8.49963 8.97462 8.51063 8.95162 8.51163 8.92562L10.0746 10.4886C10.0486 10.4896 10.0256 10.4996 9.99963 10.4996ZM2.70663 0.292622C2.31663 -0.0973779 1.68363 -0.0973779 1.29263 0.292622C0.902628 0.683622 0.902628 1.31662 1.29263 1.70662L6.92363 7.33762C6.64663 7.84562 6.49963 8.41062 6.49963 8.99962C6.49963 10.9296 8.07063 12.4996 9.99963 12.4996C10.5896 12.4996 11.1546 12.3526 11.6626 12.0766L17.2926 17.7066C17.4886 17.9026 17.7436 17.9996 17.9996 17.9996C18.2556 17.9996 18.5116 17.9026 18.7066 17.7066C19.0976 17.3166 19.0976 16.6836 18.7066 16.2926L2.70663 0.292622Z" fill="#222B45"/>
</svg>
