<svg width="20" height="14" viewBox="0 0 20 14" fill="none" xmlns="http://www.w3.org/2000/svg">
<path fill-rule="evenodd" clip-rule="evenodd" d="M9.99999 8.50002C9.17299 8.50002 8.49999 7.82702 8.49999 7.00002C8.49999 6.17302 9.17299 5.50002 9.99999 5.50002C10.827 5.50002 11.5 6.17302 11.5 7.00002C11.5 7.82702 10.827 8.50002 9.99999 8.50002ZM9.99999 3.50002C8.06999 3.50002 6.49999 5.07002 6.49999 7.00002C6.49999 8.93002 8.06999 10.5 9.99999 10.5C11.93 10.5 13.5 8.93002 13.5 7.00002C13.5 5.07002 11.93 3.50002 9.99999 3.50002ZM10.2197 11.9976C5.91369 12.0976 3.10469 8.41462 2.17269 6.99562C3.19869 5.39062 5.78269 2.10462 9.78069 2.00262C14.0697 1.89362 16.8947 5.58562 17.8267 7.00462C16.8017 8.60962 14.2167 11.8956 10.2197 11.9976ZM19.8677 6.50262C19.2297 5.39062 15.7057 -0.183379 9.72969 0.00362058C4.20169 0.143621 0.986689 5.01362 0.132689 6.50262C-0.044311 6.81062 -0.044311 7.18962 0.132689 7.49762C0.761689 8.59462 4.16169 13.9996 10.0247 13.9996C10.1067 13.9996 10.1887 13.9986 10.2707 13.9966C15.7977 13.8556 19.0137 8.98662 19.8677 7.49762C20.0437 7.18962 20.0437 6.81062 19.8677 6.50262Z" fill="#222B45"/>
</svg>
