<svg width="30" height="30" viewBox="0 0 30 30" fill="none" xmlns="http://www.w3.org/2000/svg">
<path fill-rule="evenodd" clip-rule="evenodd" d="M19.5 13.5H16.5V10.5C16.5 9.675 15.825 9 15 9C14.175 9 13.5 9.675 13.5 10.5V13.5H10.5C9.675 13.5 9 14.175 9 15C9 15.825 9.675 16.5 10.5 16.5H13.5V19.5C13.5 20.325 14.175 21 15 21C15.825 21 16.5 20.325 16.5 19.5V16.5H19.5C20.325 16.5 21 15.825 21 15C21 14.175 20.325 13.5 19.5 13.5ZM15 27C8.3835 27 3 21.6165 3 15C3 8.3835 8.3835 3 15 3C21.6165 3 27 8.3835 27 15C27 21.6165 21.6165 27 15 27ZM15 0C6.729 0 0 6.729 0 15C0 23.271 6.729 30 15 30C23.271 30 30 23.271 30 15C30 6.729 23.271 0 15 0Z" fill="white"/>
</svg>
