<svg width="24" height="24" viewBox="0 0 24 24" fill="none" xmlns="http://www.w3.org/2000/svg">
<path fill-rule="evenodd" clip-rule="evenodd" d="M6.3662 14.9395L11.9452 9.3595L14.6412 12.0555L11.8512 14.8515M19.4022 7.3365L16.6632 4.5975C15.8952 3.8295 14.6772 3.8015 13.9482 4.5295L11.9452 6.5315L10.7072 5.2935C10.3162 4.9025 9.6832 4.9025 9.2932 5.2935C8.9022 5.6835 8.9022 6.3165 9.2932 6.7075L10.5312 7.9455L4.9522 13.5255C4.6272 13.8505 4.4252 14.2825 4.3832 14.7395L4.0042 18.9095C3.9772 19.2055 4.0832 19.4975 4.2932 19.7075C4.4812 19.8955 4.7362 20.0005 5.0002 20.0005C5.0302 20.0005 5.0602 19.9995 5.0912 19.9965L9.2612 19.6175C9.7182 19.5755 10.1492 19.3735 10.4742 19.0475L16.0542 13.4685L17.2932 14.7075C17.4882 14.9025 17.7442 15.0005 18.0002 15.0005C18.2562 15.0005 18.5122 14.9025 18.7072 14.7075C19.0972 14.3165 19.0972 13.6835 18.7072 13.2935L17.4692 12.0545L19.4702 10.0515C20.2002 9.3225 20.1702 8.1045 19.4022 7.3365Z" fill="#222B45"/>
</svg>
