<svg width="24" height="24" viewBox="0 0 24 24" fill="none" xmlns="http://www.w3.org/2000/svg">
<path fill-rule="evenodd" clip-rule="evenodd" d="M8.30957 10.1388L11.3096 7.27676C11.3546 7.23376 11.4106 7.21276 11.4606 7.17976C11.5146 7.14376 11.5626 7.10076 11.6226 7.07576C11.7436 7.02676 11.8716 6.99976 11.9996 6.99976C12.1306 6.99976 12.2606 7.02676 12.3826 7.07676C12.5046 7.12776 12.6156 7.20076 12.7076 7.29376L15.7066 10.2928C16.0976 10.6838 16.0976 11.3168 15.7066 11.7068C15.3166 12.0978 14.6836 12.0978 14.2926 11.7068L12.9996 10.4138V15.9998C12.9996 16.5528 12.5526 16.9998 11.9996 16.9998C11.4476 16.9998 10.9996 16.5528 10.9996 15.9998V10.3368L9.69057 11.5858C9.29057 11.9668 8.65857 11.9528 8.27657 11.5528C7.89457 11.1528 7.91057 10.5198 8.30957 10.1388ZM11.9996 21.9998C17.5146 21.9998 21.9996 17.5138 21.9996 11.9998C21.9996 6.48576 17.5146 1.99976 11.9996 1.99976C6.48557 1.99976 1.99957 6.48576 1.99957 11.9998C1.99957 17.5138 6.48557 21.9998 11.9996 21.9998Z" fill="#222B45"/>
</svg>
