<svg width="24" height="24" viewBox="0 0 24 24" fill="none" xmlns="http://www.w3.org/2000/svg">
<path fill-rule="evenodd" clip-rule="evenodd" d="M15.6904 13.8612L12.6904 16.7232C12.6454 16.7662 12.5894 16.7872 12.5394 16.8202C12.4854 16.8562 12.4374 16.8992 12.3774 16.9242C12.2564 16.9732 12.1284 17.0002 12.0004 17.0002C11.8694 17.0002 11.7394 16.9732 11.6174 16.9232C11.4954 16.8722 11.3844 16.7992 11.2924 16.7062L8.29343 13.7072C7.90243 13.3162 7.90243 12.6832 8.29343 12.2932C8.68343 11.9022 9.31643 11.9022 9.70743 12.2932L11.0004 13.5862V8.00024C11.0004 7.44724 11.4474 7.00024 12.0004 7.00024C12.5524 7.00024 13.0004 7.44724 13.0004 8.00024V13.6632L14.3094 12.4142C14.7094 12.0332 15.3414 12.0472 15.7234 12.4472C16.1054 12.8472 16.0894 13.4802 15.6904 13.8612ZM12.0004 2.00024C6.48543 2.00024 2.00043 6.48624 2.00043 12.0002C2.00043 17.5142 6.48543 22.0002 12.0004 22.0002C17.5144 22.0002 22.0004 17.5142 22.0004 12.0002C22.0004 6.48624 17.5144 2.00024 12.0004 2.00024Z" fill="#222B45"/>
</svg>
