<svg width="24" height="24" viewBox="0 0 24 24" fill="none" xmlns="http://www.w3.org/2000/svg">
<path fill-rule="evenodd" clip-rule="evenodd" d="M9.40528 9.66956C10.0103 9.66956 10.3643 9.99456 10.3643 10.5226C10.3643 11.0886 9.98128 11.4086 9.11328 11.4086H8.26028V9.66956H9.40528ZM14.7646 11.1886C14.1386 11.1886 13.7266 11.6666 13.7266 12.2846V12.2936H15.7876V12.2846C15.7876 11.6616 15.3856 11.1886 14.7646 11.1886ZM9.48678 12.3038H8.25978V14.2378H9.21878C10.2398 14.2378 10.6568 13.9128 10.6568 13.2938C10.6568 12.6798 10.2438 12.3038 9.48678 12.3038ZM17.0249 13.0538H13.7269V13.1858C13.7269 13.9178 14.1679 14.3818 14.8179 14.3818C15.3269 14.3818 15.6859 14.1458 15.7929 13.7538H16.9769C16.8559 14.5278 16.1859 15.2968 14.8079 15.2968C13.3969 15.2968 12.4749 14.4688 12.4749 12.9908V12.5488C12.4749 11.1338 13.4009 10.2968 14.7549 10.2968C16.1569 10.2968 17.0249 11.1928 17.0249 12.5798V13.0538ZM13.2499 9.70276H16.2499V9.20276H13.2499V9.70276ZM9.69788 15.2028H6.97488V8.70276H9.70288C10.8729 8.70276 11.6399 9.30876 11.6399 10.3038C11.6399 11.0938 11.1649 11.5708 10.5179 11.7278V11.7838C11.3039 11.8608 11.9749 12.3948 11.9749 13.3698C11.9749 14.5328 11.0259 15.2028 9.69788 15.2028ZM11.9999 1.99976C6.47688 1.99976 1.99988 6.47776 1.99988 11.9998C1.99988 17.5228 6.47688 21.9998 11.9999 21.9998C17.5229 21.9998 21.9999 17.5228 21.9999 11.9998C21.9999 6.47776 17.5229 1.99976 11.9999 1.99976Z" fill="#222B45"/>
</svg>
