<svg width="24" height="24" viewBox="0 0 24 24" fill="none" xmlns="http://www.w3.org/2000/svg">
<path fill-rule="evenodd" clip-rule="evenodd" d="M19.2676 4.67976C18.8056 4.34576 18.2076 4.25076 17.6686 4.42676C17.0926 4.61476 16.3426 4.71376 15.4996 4.71376C14.3756 4.71376 13.3996 4.33076 12.3656 3.92576C11.2036 3.47076 10.0006 2.99976 8.49963 2.99976C5.61363 2.99976 4.49563 3.95176 4.29963 4.14376C4.10863 4.33076 3.99963 4.58876 3.99963 4.85776V11.9998V15.1428V19.9998C3.99963 20.5528 4.44763 20.9998 4.99963 20.9998C5.55263 20.9998 5.99963 20.5528 5.99963 19.9998V15.7018C6.39463 15.5268 7.17263 15.2858 8.49963 15.2858C9.62363 15.2858 10.6006 15.6688 11.6346 16.0748C12.7966 16.5298 13.9986 16.9998 15.4996 16.9998C17.3086 16.9998 18.4226 16.6218 19.0406 16.3048C19.6326 15.9978 19.9996 15.4028 19.9996 14.7488V6.10576C19.9996 5.54576 19.7266 5.01276 19.2676 4.67976Z" fill="#222B45"/>
</svg>
