<svg width="24" height="24" viewBox="0 0 24 24" fill="none" xmlns="http://www.w3.org/2000/svg">
<path fill-rule="evenodd" clip-rule="evenodd" d="M18.4434 21H12.8184V15.272H19.3634V20.091C19.3634 20.593 18.9514 21 18.4434 21ZM4.63673 20.0905V15.2725H11.1817V21.0005H5.55673C5.04873 21.0005 4.63673 20.5925 4.63673 20.0905ZM20.0996 7.09076H18.2576C18.4366 6.71776 18.5456 6.30476 18.5456 5.86276C18.5456 4.28476 17.2606 2.99976 15.6816 2.99976C13.8006 2.99976 12.6606 4.31976 11.9996 5.56876C11.3386 4.31976 10.1996 2.99976 8.31863 2.99976C6.73963 2.99976 5.45363 4.28476 5.45363 5.86276C5.45363 6.30476 5.56363 6.71776 5.74263 7.09076H3.90063C3.40363 7.09076 2.99963 7.67676 2.99963 8.40076V12.3268C2.99963 13.0498 3.40363 13.6368 3.90063 13.6368H4.63663H11.1816V7.09076H12.8186V13.6368H19.3636H20.0996C20.5966 13.6368 20.9996 13.0498 20.9996 12.3268V8.40076C20.9996 7.67676 20.5966 7.09076 20.0996 7.09076ZM15.6816 7.09076H13.1006C13.4866 6.07476 14.2806 4.63676 15.6816 4.63676C16.3586 4.63676 16.9096 5.18676 16.9096 5.86276C16.9096 6.53976 16.3586 7.09076 15.6816 7.09076ZM8.31863 7.09076C7.64163 7.09076 7.09063 6.53976 7.09063 5.86276C7.09063 5.18676 7.64163 4.63676 8.31863 4.63676C9.71963 4.63676 10.5136 6.07476 10.8996 7.09076H8.31863Z" fill="#222B45"/>
</svg>
