<svg width="24" height="24" viewBox="0 0 24 24" fill="none" xmlns="http://www.w3.org/2000/svg">
<path fill-rule="evenodd" clip-rule="evenodd" d="M18.3232 4C18.0736 4 17.8251 4.03494 17.5852 4.10376L6.81955 7.19202C6.7299 7.21771 6.63708 7.23077 6.54381 7.23077H5C3.34315 7.23077 2 8.57391 2 10.2308V13.7692C2 15.4261 3.34315 16.7692 5 16.7692H6V19C6 19.5523 6.44772 20 7 20C7.55228 20 8 19.5523 8 19V17.1466L17.5852 19.8962C17.8251 19.9651 18.0736 20 18.3232 20C19.8016 20 21 18.8016 21 17.3232V14.6655C21.5978 14.2333 22 13.4254 22 12.5C22 11.5746 21.5978 10.7667 21 10.3345V6.67676C21 5.19843 19.8016 4 18.3232 4ZM5.5 9C4.67157 9 4 9.67157 4 10.5V13.5C4 14.3284 4.67157 15 5.5 15H6V9H5.5Z" fill="#29293D"/>
</svg>
