<svg width="24" height="24" viewBox="0 0 24 24" fill="none" xmlns="http://www.w3.org/2000/svg">
<path fill-rule="evenodd" clip-rule="evenodd" d="M12.2959 21.9999C12.2639 21.9999 12.2329 21.9999 12.1999 21.9989C9.40592 21.9749 6.79792 20.8539 4.85592 18.8459C1.17892 15.0409 1.06392 8.74394 4.59892 4.80894C5.69992 3.58194 7.04392 2.65894 8.59192 2.06594C8.95692 1.92394 9.37192 2.01194 9.65092 2.28794C9.93092 2.56294 10.0239 2.97594 9.88892 3.34394C8.77092 6.39894 9.53192 9.85494 11.8299 12.1479C14.1269 14.4409 17.5929 15.2019 20.6579 14.0859C21.0259 13.9499 21.4389 14.0459 21.7129 14.3239C21.9879 14.6039 22.0739 15.0189 21.9339 15.3839C21.4099 16.7469 20.6239 17.9569 19.5979 18.9799C17.6449 20.9299 15.0539 21.9999 12.2959 21.9999Z" fill="#222B45"/>
</svg>
