<svg width="24" height="24" viewBox="0 0 24 24" fill="none" xmlns="http://www.w3.org/2000/svg">
<path fill-rule="evenodd" clip-rule="evenodd" d="M14 18.3413C14 19.2403 13.084 20.0003 12 20.0003C10.916 20.0003 10 19.2403 10 18.3413V18.0003H14V18.3413ZM20.521 15.2073L18.72 13.4043V8.93626C18.72 5.45526 16.218 2.49926 12.899 2.05926C10.978 1.80426 9.03803 2.39026 7.58303 3.66626C6.11903 4.94826 5.28003 6.79326 5.28003 8.72726L5.27903 13.4043L3.47903 15.2083C3.01003 15.6773 2.87103 16.3773 3.12503 16.9903C3.38003 17.6033 3.97303 18.0003 4.63703 18.0003H8.00003V18.3413C8.00003 20.3593 9.79403 22.0003 12 22.0003C14.206 22.0003 16 20.3593 16 18.3413V18.0003H19.362C20.026 18.0003 20.619 17.6043 20.873 16.9903C21.128 16.3773 20.989 15.6773 20.521 15.2073Z" fill="#222B45"/>
</svg>
