<svg width="24" height="24" viewBox="0 0 24 24" fill="none" xmlns="http://www.w3.org/2000/svg">
<path fill-rule="evenodd" clip-rule="evenodd" d="M14.9995 15C14.9995 15.55 14.5495 16 13.9995 16C13.4495 16 12.9995 15.55 12.9995 15V9C12.9995 8.45 13.4495 8 13.9995 8C14.5495 8 14.9995 8.45 14.9995 9V15ZM10.9995 15C10.9995 15.55 10.5495 16 9.99951 16C9.44951 16 8.99951 15.55 8.99951 15V9C8.99951 8.45 9.44951 8 9.99951 8C10.5495 8 10.9995 8.45 10.9995 9V15ZM11.9995 2C6.48551 2 1.99951 6.486 1.99951 12C1.99951 17.514 6.48551 22 11.9995 22C17.5145 22 21.9995 17.514 21.9995 12C21.9995 6.486 17.5145 2 11.9995 2Z" fill="#222B45"/>
</svg>
