<svg width="24" height="24" viewBox="0 0 24 24" fill="none" xmlns="http://www.w3.org/2000/svg">
<path fill-rule="evenodd" clip-rule="evenodd" d="M9.27337 12.0548C8.97137 11.6088 8.70137 11.1388 8.47437 10.6448C9.71337 9.99476 9.71737 9.99176 9.85437 9.84976C10.0874 9.60676 10.1824 9.26176 10.1074 8.93376L8.73837 2.96976C8.66137 2.63376 8.41737 2.36176 8.09137 2.24876C7.85437 2.16576 7.60837 2.10476 7.36537 2.06576C7.11637 2.02276 6.86037 1.99976 6.59937 1.99976C4.06337 1.99976 2.00037 4.06376 2.00037 6.59976C2.00037 10.1658 3.22937 13.4438 5.27137 16.0568L9.27337 12.0548ZM21.9355 16.6388C21.8955 16.3888 21.8325 16.1438 21.7505 15.9088C21.6385 15.5828 21.3665 15.3388 21.0305 15.2618L15.0665 13.8928C14.7375 13.8198 14.3935 13.9118 14.1505 14.1458L14.1499 14.1463C14.0075 14.2828 14.0036 14.2865 13.3545 15.5278C12.8605 15.3028 12.3895 15.0328 11.9425 14.7288L7.94347 18.7288C10.5565 20.7708 13.8335 21.9998 17.4005 21.9998C19.9365 21.9998 21.9995 19.9368 21.9995 17.4008C21.9995 17.1418 21.9775 16.8868 21.9355 16.6388ZM18.4823 4.26076C18.8303 3.91276 19.3923 3.91276 19.7393 4.26076C20.0873 4.60776 20.0873 5.16976 19.7393 5.51776L5.51727 19.7398C5.17027 20.0868 4.60727 20.0868 4.26027 19.7398C4.08727 19.5668 4.00027 19.3388 4.00027 19.1118C4.00027 18.8838 4.08727 18.6568 4.26027 18.4828L18.4823 4.26076Z" fill="#222B45"/>
</svg>
