<svg width="24" height="24" viewBox="0 0 24 24" fill="none" xmlns="http://www.w3.org/2000/svg">
<path fill-rule="evenodd" clip-rule="evenodd" d="M21.7505 15.9088C21.8325 16.1438 21.8955 16.3888 21.9355 16.6388C21.9775 16.8868 21.9995 17.1418 21.9995 17.4008C21.9995 19.9368 19.9365 21.9998 17.4005 21.9998C8.90851 21.9998 1.99951 15.0918 1.99951 6.59976C1.99951 4.06376 4.06351 1.99976 6.59951 1.99976C6.86051 1.99976 7.11651 2.02276 7.36551 2.06576C7.60851 2.10476 7.85451 2.16576 8.09151 2.24876C8.41651 2.36176 8.66151 2.63376 8.73851 2.96976L10.1075 8.93376C10.1825 9.26176 10.0875 9.60676 9.85451 9.84976C9.7177 9.99256 9.71352 9.99475 8.47963 10.6421L8.47451 10.6448C9.46551 12.8068 11.2145 14.5528 13.3545 15.5278C14.0036 14.2865 14.0075 14.2828 14.1499 14.1463L14.1505 14.1458C14.3935 13.9118 14.7375 13.8198 15.0665 13.8928L21.0305 15.2618C21.3665 15.3388 21.6385 15.5828 21.7505 15.9088ZM17.2678 8.69826C16.8638 9.10026 16.2048 9.10026 15.8018 8.69826C15.3998 8.29526 15.3998 7.63626 15.8018 7.23226L16.5348 6.50026L15.8018 5.76726C15.3998 5.36426 15.3998 4.70526 15.8018 4.30226C16.2048 3.89926 16.8638 3.89926 17.2678 4.30226L17.9998 5.03526L18.7328 4.30226C19.1358 3.89926 19.7948 3.89926 20.1978 4.30226C20.6008 4.70526 20.6008 5.36426 20.1978 5.76726L19.4648 6.50026L20.1978 7.23226C20.6008 7.63626 20.6008 8.29526 20.1978 8.69826C19.7948 9.10026 19.1358 9.10026 18.7328 8.69826L17.9998 7.96526L17.2678 8.69826Z" fill="#222B45"/>
</svg>
