<svg width="24" height="24" viewBox="0 0 24 24" fill="none" xmlns="http://www.w3.org/2000/svg">
<path d="M9.47834 4.27855C9.33391 4.11302 9.09756 4.06059 8.89913 4.15488C4.57232 6.21086 2 9.89041 2 13.9438C2 16.8652 3.88235 19 6.47059 19C8.70588 19 10.4706 17.427 10.4706 15.3483C10.4706 13.7753 9.41177 12.4831 7.82353 12.0899C6 11.6966 5.94118 11.6404 5.94118 10.7416C5.94118 8.90144 7.28062 7.15972 9.86308 5.65453C10.1408 5.49267 10.2101 5.11716 9.99874 4.87496L9.47834 4.27855ZM21.0078 4.27855C20.8633 4.11302 20.627 4.06059 20.4285 4.15488C16.1017 6.21086 13.5294 9.89041 13.5294 13.9438C13.5294 16.8652 15.4118 19 18 19C20.2353 19 22 17.427 22 15.3483C22 13.7753 20.9412 12.4831 19.3529 12.0899C17.5294 11.6966 17.4706 11.6404 17.4706 10.7416C17.4706 8.90144 18.81 7.15972 21.3925 5.65453C21.6702 5.49267 21.7395 5.11716 21.5282 4.87496L21.0078 4.27855Z" fill="#000018" fill-opacity="0.84"/>
</svg>
