<svg width="24" height="24" viewBox="0 0 24 24" fill="none" xmlns="http://www.w3.org/2000/svg">
<path fill-rule="evenodd" clip-rule="evenodd" d="M16.4502 6.20121C15.7162 5.85621 14.8482 5.95821 14.2412 6.46121L9.14118 10.6742C9.08818 10.7182 9.04718 10.7692 9.00018 10.8182V7.00021C9.00018 6.44721 8.55218 6.00021 8.00018 6.00021C7.44818 6.00021 7.00018 6.44721 7.00018 7.00021V17.0002C7.00018 17.5532 7.44818 18.0002 8.00018 18.0002C8.55218 18.0002 9.00018 17.5532 9.00018 17.0002V13.1812C9.04718 13.2302 9.08818 13.2822 9.14118 13.3262L14.2412 17.5402C14.6092 17.8442 15.0732 18.0012 15.5442 18.0012C15.8512 18.0012 16.1612 17.9342 16.4502 17.7992C17.0972 17.4932 17.5002 16.8862 17.5002 16.2132V7.78721C17.5002 7.11421 17.0972 6.50721 16.4502 6.20121Z" fill="#222B45"/>
</svg>
