<svg width="110" height="110" viewBox="0 0 110 110" fill="none" xmlns="http://www.w3.org/2000/svg">
<path d="M61.4453 39.5312H15.0391C7.91979 39.5312 2.14844 45.3026 2.14844 52.4219V85.5078C2.14844 92.6271 7.91979 98.3984 15.0391 98.3984H28.9994L28.8058 98.4152L38.2422 107.852L38.2488 98.3984H61.4453C68.5646 98.3984 74.3359 92.6271 74.3359 85.5078V52.4219C74.3359 45.3026 68.5646 39.5312 61.4453 39.5312Z" fill="#0582F0"/>
<path d="M61.4453 39.5312H15.0391C7.91979 39.5312 2.14844 45.3026 2.14844 52.4219V85.5078C2.14844 92.6271 7.91979 98.3984 15.0391 98.3984H28.9994L28.8058 98.4152L38.2422 107.852L38.2488 98.3984H61.4453C68.5646 98.3984 74.3359 92.6271 74.3359 85.5078V52.4219C74.3359 45.3026 68.5646 39.5312 61.4453 39.5312Z" fill="white" fill-opacity="0.52"/>
<path d="M38.2426 110C37.6834 110 37.134 109.782 36.723 109.371L27.8992 100.547H15.0391C6.74652 100.547 0 93.8004 0 85.5078V52.4219C0 44.1293 6.74652 37.3828 15.0391 37.3828H36.7383C37.9246 37.3828 38.8867 38.3447 38.8867 39.5312C38.8867 40.7178 37.9246 41.6797 36.7383 41.6797H15.0391C9.11582 41.6797 4.29688 46.4986 4.29688 52.4219V85.5078C4.29688 91.4311 9.11582 96.25 15.0391 96.25H28.9994C29.8781 96.25 30.6378 96.7787 30.9697 97.5408L36.0976 102.668L36.1006 98.3969C36.1015 97.211 37.0629 96.25 38.2491 96.25H61.4453C67.3686 96.25 72.1875 91.4311 72.1875 85.5078V70.6836C72.1875 69.497 73.1496 68.5352 74.3359 68.5352C75.5223 68.5352 76.4844 69.497 76.4844 70.6836V85.5078C76.4844 93.8004 69.7379 100.547 61.4453 100.547H40.3958L40.3906 107.853C40.39 108.722 39.8664 109.505 39.0635 109.837C38.7982 109.947 38.5191 110 38.2426 110Z" fill="black"/>
<path d="M78.7735 2.14844H73.3361C57.2767 2.14844 44.2578 15.1671 44.2578 31.2267C44.2578 47.286 57.2765 60.3049 73.3361 60.3049H78.7735C81.75 60.3049 84.6216 59.8568 87.3254 59.026L96.25 67.9454V54.4676C103.296 49.1612 107.852 40.7262 107.852 31.2265C107.852 15.1671 94.8329 2.14844 78.7735 2.14844Z" fill="#3CC431"/>
<path d="M78.7735 2.14844H73.3361C57.2767 2.14844 44.2578 15.1671 44.2578 31.2267C44.2578 47.286 57.2765 60.3049 73.3361 60.3049H78.7735C81.75 60.3049 84.6216 59.8568 87.3254 59.026L96.25 67.9454V54.4676C103.296 49.1612 107.852 40.7262 107.852 31.2265C107.852 15.1671 94.8329 2.14844 78.7735 2.14844Z" fill="white" fill-opacity="0.4"/>
<path d="M96.2504 70.0938C95.6914 70.0938 95.1423 69.8756 94.7313 69.465L86.6989 61.4371C84.1208 62.1118 81.4608 62.4531 78.7733 62.4531H73.3358C56.1176 62.4531 42.1094 48.4451 42.1094 31.2267C42.1094 14.0082 56.1176 0 73.3361 0H78.7735C95.9918 0 110 14.0082 110 31.2267C110 36.2145 108.859 40.9817 106.607 45.3958C104.624 49.2824 101.799 52.7613 98.3984 55.5154V67.9454C98.3984 68.8142 97.8751 69.5976 97.0724 69.9301C96.8067 70.0404 96.5274 70.0938 96.2504 70.0938ZM87.3252 56.8773C87.8864 56.8773 88.4351 57.0975 88.8441 57.5062L94.1016 62.7608V54.4678C94.1016 53.793 94.4187 53.1575 94.9573 52.7517C101.787 47.6083 105.703 39.7626 105.703 31.2267C105.703 16.3775 93.6227 4.29688 78.7735 4.29688H73.3361C58.4869 4.29688 46.4062 16.3775 46.4062 31.2267C46.4062 46.0758 58.4867 58.1565 73.3361 58.1565H78.7735C81.4722 58.1565 84.1371 57.7582 86.6944 56.9723C86.9019 56.9085 87.1146 56.8773 87.3252 56.8773Z" fill="black"/>
<path d="M76.6562 40.1273C75.4699 40.1273 74.5078 39.1655 74.5078 37.9789V32.8173C74.5078 30.8929 75.8248 29.2541 77.7107 28.8321C80.0383 28.3114 81.6082 26.1969 81.4432 23.8041C81.2799 21.4351 79.3701 19.5253 77.0008 19.362C75.6495 19.2688 74.3651 19.7228 73.3824 20.6399C72.3989 21.558 71.8571 22.8043 71.8571 24.149C71.8571 25.3356 70.895 26.2974 69.7086 26.2974C68.5223 26.2974 67.5602 25.3356 67.5602 24.149C67.5602 21.6372 68.6136 19.2134 70.4505 17.4987C72.313 15.76 74.7463 14.8999 77.296 15.075C81.794 15.3851 85.4197 19.0108 85.7297 23.5085C86.038 27.9818 83.1336 31.9431 78.8045 32.9889V37.9789C78.8047 39.1655 77.8428 40.1273 76.6562 40.1273Z" fill="black"/>
<path d="M76.6562 48.6255C76.0912 48.6255 75.5369 48.3978 75.1373 47.9981C74.7379 47.5985 74.5078 47.0442 74.5078 46.4771C74.5078 45.912 74.7377 45.3577 75.1373 44.9581C75.5369 44.5585 76.0912 44.3286 76.6562 44.3286C77.2213 44.3286 77.7756 44.5585 78.1752 44.9581C78.5746 45.3577 78.8047 45.912 78.8047 46.4771C78.8047 47.0442 78.5748 47.5964 78.1752 47.9981C77.7756 48.3978 77.2213 48.6255 76.6562 48.6255Z" fill="black"/>
<path d="M59.082 70.8984H13.75C12.5636 70.8984 11.6016 69.9366 11.6016 68.75C11.6016 67.5634 12.5636 66.6016 13.75 66.6016H59.082C60.2684 66.6016 61.2305 67.5634 61.2305 68.75C61.2305 69.9366 60.2686 70.8984 59.082 70.8984Z" fill="black"/>
<path d="M59.082 82.9297C58.517 82.9297 57.9627 82.6998 57.5631 82.3002C57.1635 81.9006 56.9336 81.3463 56.9336 80.7812C56.9336 80.2162 57.1633 79.6619 57.5631 79.2623C57.9627 78.8627 58.517 78.6328 59.082 78.6328C59.6471 78.6328 60.2014 78.8627 60.6008 79.2623C61.0004 79.6619 61.2305 80.2162 61.2305 80.7812C61.2305 81.3484 61.0006 81.9006 60.6008 82.3002C60.2014 82.6998 59.6471 82.9297 59.082 82.9297Z" fill="black"/>
<path d="M50.6316 82.9297H13.75C12.5636 82.9297 11.6016 81.9678 11.6016 80.7812C11.6016 79.5947 12.5636 78.6328 13.75 78.6328H50.6316C51.818 78.6328 52.78 79.5947 52.78 80.7812C52.78 81.9678 51.8182 82.9297 50.6316 82.9297Z" fill="black"/>
<path d="M45.1172 58.8672H13.75C12.5636 58.8672 11.6016 57.9053 11.6016 56.7188C11.6016 55.5322 12.5636 54.5703 13.75 54.5703H45.1172C46.3036 54.5703 47.2656 55.5322 47.2656 56.7188C47.2656 57.9053 46.3038 58.8672 45.1172 58.8672Z" fill="black"/>
</svg>
