<svg id="Layer_1" data-name="Layer 1" xmlns="http://www.w3.org/2000/svg" xmlns:xlink="http://www.w3.org/1999/xlink" viewBox="0 0 143.98 39.53"><defs><style>.cls-1{fill:#0081c6;}.cls-2{clip-path:url(#clip-path);}.cls-3{clip-path:url(#clip-path-2);}.cls-4{clip-path:url(#clip-path-3);}.cls-5{clip-path:url(#clip-path-4);}.cls-6{clip-path:url(#clip-path-5);}.cls-7{clip-path:url(#clip-path-6);}.cls-8{clip-path:url(#clip-path-7);}</style><clipPath id="clip-path"><path class="cls-1" d="M29.85,28V21.5a4.08,4.08,0,0,1,3-1.84c2.48,0,3,3.14,3,5,0,2-.39,5.35-3.08,5.35a3.6,3.6,0,0,1-2.9-2M25.39,9.26V33H29l.39-1.42a5.71,5.71,0,0,0,4.29,1.78c3.41,0,6.55-2.11,6.55-9.24,0-6.25-3.75-8.39-6.19-8.39-1.81,0-2.9.91-4.17,2V9.26Z"/></clipPath><clipPath id="clip-path-2"><path class="cls-1" d="M51.83,16V27.87a4.6,4.6,0,0,1-3.17,1.85c-1.93,0-1.84-2.15-1.84-3.5V16H42.35V28c0,4.16,2.6,5.28,4.44,5.28a8.18,8.18,0,0,0,5-2.11V33H56.3V16Z"/></clipPath><clipPath id="clip-path-3"><path class="cls-1" d="M72.27,18A4.41,4.41,0,0,0,68,15.68a8.12,8.12,0,0,0-5,2.11V16H58.45V33h4.46V21.26a4.33,4.33,0,0,1,3.42-2c1.87,0,1.78,1.69,1.78,3V33h4.47V21.26a4.3,4.3,0,0,1,3.41-2c1.87,0,1.78,1.69,1.78,3V33h4.47V20.72c0-3.32-2.12-5-4.74-5A8.14,8.14,0,0,0,72.27,18"/></clipPath><clipPath id="clip-path-4"><path class="cls-1" d="M91.93,19c2.14,0,2.9,1.87,2.9,3.77H89c.06-1.81.87-3.77,2.9-3.77m-7.55,5.52c0,4.47,2.51,8.82,7.43,8.82a7.58,7.58,0,0,0,7.4-5.25l-4.14-.76C94.73,28.72,93.86,30,92.26,30c-2.3,0-3.53-2.42-3.38-4.47H99.21c.11-7.85-3.15-9.87-7.4-9.87-5,0-7.43,4.31-7.43,8.81"/></clipPath><clipPath id="clip-path-5"><path class="cls-1" d="M111,15.68c-2.06,0-3.45,1.3-5.17,3.32V16h-4.46V33h4.46V25.52c0-4.5,3.57-5.55,4.71-5.55a6.08,6.08,0,0,1,1.3.18V15.68Z"/></clipPath><clipPath id="clip-path-6"><path class="cls-1" d="M117.32,28.21c0-2.48,3.65-2.66,5.49-3v2.59a4.94,4.94,0,0,1-4,2.21c-1.06,0-1.54-.82-1.54-1.81m-3.62-7.79,4.28.66A2.41,2.41,0,0,1,120.67,19c1.66,0,2.44.84,2.14,3.2-3.59.39-9.87,1.36-9.87,6.13a5,5,0,0,0,5.31,5c2.15,0,3.14-.72,4.8-1.9l.49,1.54h4.34a8,8,0,0,1-.6-3.54V21c0-3.17-2.08-5.34-6.64-5.34-3.53,0-6,1.14-6.94,4.74"/></clipPath><clipPath id="clip-path-7"><path class="cls-1" d="M134.5,17.79V16H130V33h4.47V21.11a4.63,4.63,0,0,1,3.17-1.84c1.93,0,1.84,2.14,1.84,3.5V33H144V21c0-4.16-2.6-5.28-4.44-5.28a8.1,8.1,0,0,0-5,2.11"/></clipPath></defs><title>AbanicoDeMarcas_jobs</title><path class="cls-1" d="M29.85,28V21.5a4.08,4.08,0,0,1,3-1.84c2.48,0,3,3.14,3,5,0,2-.39,5.35-3.08,5.35a3.6,3.6,0,0,1-2.9-2M25.39,9.26V33H29l.39-1.42a5.71,5.71,0,0,0,4.29,1.78c3.41,0,6.55-2.11,6.55-9.24,0-6.25-3.75-8.39-6.19-8.39-1.81,0-2.9.91-4.17,2V9.26Z"/><g class="cls-2"><rect class="cls-1" x="25.39" y="9.26" width="14.82" height="24.05"/></g><path class="cls-1" d="M51.83,16V27.87a4.6,4.6,0,0,1-3.17,1.85c-1.93,0-1.84-2.15-1.84-3.5V16H42.35V28c0,4.16,2.6,5.28,4.44,5.28a8.18,8.18,0,0,0,5-2.11V33H56.3V16Z"/><g class="cls-3"><rect class="cls-1" x="42.35" y="16.04" width="13.95" height="17.27"/></g><path class="cls-1" d="M72.27,18A4.41,4.41,0,0,0,68,15.68a8.12,8.12,0,0,0-5,2.11V16H58.45V33h4.46V21.26a4.33,4.33,0,0,1,3.42-2c1.87,0,1.78,1.69,1.78,3V33h4.47V21.26a4.3,4.3,0,0,1,3.41-2c1.87,0,1.78,1.69,1.78,3V33h4.47V20.72c0-3.32-2.12-5-4.74-5A8.14,8.14,0,0,0,72.27,18"/><g class="cls-4"><rect class="cls-1" x="58.45" y="15.68" width="23.79" height="17.27"/></g><path class="cls-1" d="M91.93,19c2.14,0,2.9,1.87,2.9,3.77H89c.06-1.81.87-3.77,2.9-3.77m-7.55,5.52c0,4.47,2.51,8.82,7.43,8.82a7.58,7.58,0,0,0,7.4-5.25l-4.14-.76C94.73,28.72,93.86,30,92.26,30c-2.3,0-3.53-2.42-3.38-4.47H99.21c.11-7.85-3.15-9.87-7.4-9.87-5,0-7.43,4.31-7.43,8.81"/><g class="cls-5"><rect class="cls-1" x="84.38" y="15.68" width="14.94" height="17.63"/></g><path class="cls-1" d="M111,15.68c-2.06,0-3.45,1.3-5.17,3.32V16h-4.46V33h4.46V25.52c0-4.5,3.57-5.55,4.71-5.55a6.08,6.08,0,0,1,1.3.18V15.68Z"/><g class="cls-6"><rect class="cls-1" x="101.41" y="15.68" width="10.48" height="17.27"/></g><path class="cls-1" d="M117.32,28.21c0-2.48,3.65-2.66,5.49-3v2.59a4.94,4.94,0,0,1-4,2.21c-1.06,0-1.54-.82-1.54-1.81m-3.62-7.79,4.28.66A2.41,2.41,0,0,1,120.67,19c1.66,0,2.44.84,2.14,3.2-3.59.39-9.87,1.36-9.87,6.13a5,5,0,0,0,5.31,5c2.15,0,3.14-.72,4.8-1.9l.49,1.54h4.34a8,8,0,0,1-.6-3.54V21c0-3.17-2.08-5.34-6.64-5.34-3.53,0-6,1.14-6.94,4.74"/><g class="cls-7"><rect class="cls-1" x="112.94" y="15.68" width="14.94" height="17.63"/></g><path class="cls-1" d="M134.5,17.79V16H130V33h4.47V21.11a4.63,4.63,0,0,1,3.17-1.84c1.93,0,1.84,2.14,1.84,3.5V33H144V21c0-4.16-2.6-5.28-4.44-5.28a8.1,8.1,0,0,0-5,2.11"/><g class="cls-8"><rect class="cls-1" x="130.03" y="15.68" width="13.95" height="17.27"/></g><path class="cls-1" d="M6.71,12.57a4.53,4.53,0,0,0,3.57,2,4.31,4.31,0,0,0,3.57-2,11,11,0,0,1-7.14,0"/><path class="cls-1" d="M8.25,24.27A48.27,48.27,0,0,1,6.17,35l4.16,4.56L14.53,35c-.58-1-2.08-8-2.14-10.66a4.09,4.09,0,0,0-2.11-.69,4,4,0,0,0-2,.65"/><path class="cls-1" d="M20.58,10.26a10.29,10.29,0,1,0-13,9.88c.23.74.58,1.66.69,2A6.18,6.18,0,0,1,9,21.88a4.37,4.37,0,0,1,1.29-.18h.08a4.34,4.34,0,0,1,1.34.19,6.12,6.12,0,0,1,.69.22c.12-.3.48-1.21.7-2a10.28,10.28,0,0,0,7.53-9.88m-17.43,0a7.15,7.15,0,1,1,7.14,7.12,7.13,7.13,0,0,1-7.14-7.12"/></svg>