<svg xmlns="http://www.w3.org/2000/svg" width="288" height="40" viewBox="0 0 288 40">
    <g fill="none" fill-rule="evenodd">
        <path fill="#1F7EBA" d="M1 7h4.256v8.07c1.209-1.066 2.244-1.933 3.97-1.933 2.33 0 5.898 2.05 5.898 8.027 0 6.815-2.99 8.836-6.244 8.836-1.782 0-2.79-.55-4.084-1.706l-.375 1.358H1V7zm4.256 17.946c.663 1.01 1.497 1.905 2.762 1.905 2.56 0 2.935-3.175 2.935-5.11 0-1.79-.49-4.793-2.849-4.793-1.237 0-2.1.867-2.848 1.762v6.236zM26.2 13.485h4.258v16.167H26.2v-1.673C24.849 29.105 23.18 30 21.395 30c-1.754 0-4.228-1.069-4.228-5.054V13.485h4.258v9.73c0 1.299-.087 3.347 1.755 3.347 1.236 0 2.214-.895 3.02-1.761V13.485zm19.477 1.875c1.468-1.213 2.992-2.223 4.977-2.223 2.504 0 4.517 1.645 4.517 4.821v11.694h-4.257V19.46c0-1.27.086-2.887-1.697-2.887-1.352 0-2.503.836-3.251 1.904v11.175h-4.258V19.46c0-1.27.086-2.887-1.697-2.887-1.353 0-2.504.836-3.252 1.904v11.175h-4.258V13.485h4.258v1.673c1.353-1.126 3.02-2.02 4.806-2.02 1.983 0 3.307.72 4.112 2.222zm11.538 6.208c0-4.302 2.357-8.43 7.075-8.43 4.056 0 7.163 1.932 7.05 9.441H61.5c-.145 1.963 1.035 4.272 3.22 4.272 1.524 0 2.36-1.241 2.677-2.598l3.943.72C70.418 28.18 67.339 30 64.29 30c-4.69 0-7.075-4.16-7.075-8.432zm7.19-5.283c-1.927 0-2.704 1.876-2.76 3.607h5.521c0-1.817-.719-3.607-2.761-3.607zm18.209-3.148h.807v4.273c-.403-.086-.807-.173-1.24-.173-1.093 0-4.486 1.01-4.486 5.313v7.102h-4.258V13.485h4.258v2.829c1.638-1.937 2.963-3.177 4.919-3.177zm2.533 4.533c.947-3.437 3.25-4.533 6.617-4.533 4.343 0 6.327 2.08 6.327 5.11v8.027c0 1.156.057 2.31.577 3.378h-4.143l-.462-1.473c-1.58 1.127-2.53 1.82-4.572 1.82-2.793 0-5.063-1.904-5.063-4.794 0-4.561 5.983-5.483 9.407-5.86.286-2.252-.46-3.06-2.044-3.06-1.352 0-2.329.607-2.56 2.02l-4.084-.635zm3.45 7.45c0 .951.461 1.731 1.47 1.731 1.753 0 2.96-1.04 3.768-2.107v-2.482c-1.755.317-5.237.49-5.237 2.857zm16.37-9.962c1.352-1.126 3.02-2.02 4.804-2.02 1.754 0 4.229 1.068 4.229 5.052v11.462h-4.258v-9.73c0-1.3.085-3.349-1.754-3.349-1.237 0-2.216.895-3.02 1.761v11.318h-4.259V13.485h4.259v1.673z"/>
        <path fill="#565656" fill-rule="nonzero" d="M158.1 22.14c0 .22-.02.51-.06.87h-12.9c.18 1.4.795 2.525 1.845 3.375 1.05.85 2.355 1.275 3.915 1.275 1.9 0 3.43-.64 4.59-1.92l1.59 1.86a6.964 6.964 0 0 1-2.685 1.92c-1.07.44-2.265.66-3.585.66-1.68 0-3.17-.345-4.47-1.035-1.3-.69-2.305-1.655-3.015-2.895s-1.065-2.64-1.065-4.2c0-1.54.345-2.93 1.035-4.17a7.414 7.414 0 0 1 2.85-2.895c1.21-.69 2.575-1.035 4.095-1.035 1.52 0 2.875.345 4.065 1.035a7.268 7.268 0 0 1 2.79 2.895c.67 1.24 1.005 2.66 1.005 4.26zm-7.86-5.76c-1.38 0-2.535.42-3.465 1.26-.93.84-1.475 1.94-1.635 3.3h10.2c-.16-1.34-.705-2.435-1.635-3.285-.93-.85-2.085-1.275-3.465-1.275zm15.21 13.8c-1.3 0-2.55-.175-3.75-.525-1.2-.35-2.14-.795-2.82-1.335l1.2-2.28c.7.5 1.55.9 2.55 1.2 1 .3 2.01.45 3.03.45 2.52 0 3.78-.72 3.78-2.16 0-.48-.17-.86-.51-1.14-.34-.28-.765-.485-1.275-.615-.51-.13-1.235-.275-2.175-.435-1.28-.2-2.325-.43-3.135-.69-.81-.26-1.505-.7-2.085-1.32-.58-.62-.87-1.49-.87-2.61 0-1.44.6-2.595 1.8-3.465 1.2-.87 2.81-1.305 4.83-1.305 1.06 0 2.12.13 3.18.39s1.93.61 2.61 1.05l-1.23 2.28c-1.3-.84-2.83-1.26-4.59-1.26-1.22 0-2.15.2-2.79.6-.64.4-.96.93-.96 1.59 0 .52.18.93.54 1.23.36.3.805.52 1.335.66.53.14 1.275.3 2.235.48 1.28.22 2.315.455 3.105.705.79.25 1.465.675 2.025 1.275.56.6.84 1.44.84 2.52 0 1.44-.615 2.585-1.845 3.435-1.23.85-2.905 1.275-5.025 1.275zm17.7-16.23c1.54 0 2.92.34 4.14 1.02a7.336 7.336 0 0 1 2.865 2.85c.69 1.22 1.035 2.63 1.035 4.23 0 1.6-.345 3.015-1.035 4.245a7.309 7.309 0 0 1-2.865 2.865c-1.22.68-2.6 1.02-4.14 1.02-1.14 0-2.185-.22-3.135-.66a6.52 6.52 0 0 1-2.415-1.92v8.22h-2.88V14.1h2.76v2.52a6.114 6.114 0 0 1 2.43-1.995c.98-.45 2.06-.675 3.24-.675zm-.24 13.71c1.02 0 1.935-.235 2.745-.705a5.08 5.08 0 0 0 1.92-1.98c.47-.85.705-1.825.705-2.925 0-1.1-.235-2.075-.705-2.925a4.974 4.974 0 0 0-1.92-1.965c-.81-.46-1.725-.69-2.745-.69-1 0-1.905.235-2.715.705a5.108 5.108 0 0 0-1.92 1.965c-.47.84-.705 1.81-.705 2.91s.23 2.075.69 2.925c.46.85 1.1 1.51 1.92 1.98.82.47 1.73.705 2.73.705zm25.44-5.52c0 .22-.02.51-.06.87h-12.9c.18 1.4.795 2.525 1.845 3.375 1.05.85 2.355 1.275 3.915 1.275 1.9 0 3.43-.64 4.59-1.92l1.59 1.86a6.964 6.964 0 0 1-2.685 1.92c-1.07.44-2.265.66-3.585.66-1.68 0-3.17-.345-4.47-1.035-1.3-.69-2.305-1.655-3.015-2.895s-1.065-2.64-1.065-4.2c0-1.54.345-2.93 1.035-4.17a7.414 7.414 0 0 1 2.85-2.895c1.21-.69 2.575-1.035 4.095-1.035 1.52 0 2.875.345 4.065 1.035a7.268 7.268 0 0 1 2.79 2.895c.67 1.24 1.005 2.66 1.005 4.26zm-7.86-5.76c-1.38 0-2.535.42-3.465 1.26-.93.84-1.475 1.94-1.635 3.3h10.2c-.16-1.34-.705-2.435-1.635-3.285-.93-.85-2.085-1.275-3.465-1.275zm17.58 13.8c-1.62 0-3.065-.35-4.335-1.05a7.693 7.693 0 0 1-2.985-2.895c-.72-1.23-1.08-2.625-1.08-4.185 0-1.56.36-2.955 1.08-4.185a7.587 7.587 0 0 1 2.985-2.88c1.27-.69 2.715-1.035 4.335-1.035 1.44 0 2.725.29 3.855.87a6.197 6.197 0 0 1 2.625 2.52l-2.19 1.41c-.5-.76-1.12-1.33-1.86-1.71-.74-.38-1.56-.57-2.46-.57-1.04 0-1.975.23-2.805.69a4.917 4.917 0 0 0-1.95 1.965c-.47.85-.705 1.825-.705 2.925 0 1.12.235 2.105.705 2.955.47.85 1.12 1.505 1.95 1.965.83.46 1.765.69 2.805.69.9 0 1.72-.19 2.46-.57.74-.38 1.36-.95 1.86-1.71l2.19 1.38a6.29 6.29 0 0 1-2.625 2.535c-1.13.59-2.415.885-3.855.885zm9-16.08h2.88V30h-2.88V14.1zm1.44-3.06c-.56 0-1.025-.18-1.395-.54-.37-.36-.555-.8-.555-1.32s.185-.965.555-1.335c.37-.37.835-.555 1.395-.555s1.025.175 1.395.525c.37.35.555.785.555 1.305 0 .54-.185.995-.555 1.365-.37.37-.835.555-1.395.555zm11.52 2.91c2.2 0 3.885.54 5.055 1.62s1.755 2.69 1.755 4.83V30h-2.73v-2.1c-.48.74-1.165 1.305-2.055 1.695-.89.39-1.945.585-3.165.585-1.78 0-3.205-.43-4.275-1.29-1.07-.86-1.605-1.99-1.605-3.39 0-1.4.51-2.525 1.53-3.375 1.02-.85 2.64-1.275 4.86-1.275h4.56v-.57c0-1.24-.36-2.19-1.08-2.85-.72-.66-1.78-.99-3.18-.99-.94 0-1.86.155-2.76.465-.9.31-1.66.725-2.28 1.245l-1.2-2.16c.82-.66 1.8-1.165 2.94-1.515 1.14-.35 2.35-.525 3.63-.525zm-.66 14.01c1.1 0 2.05-.245 2.85-.735.8-.49 1.38-1.185 1.74-2.085v-2.22h-4.44c-2.44 0-3.66.82-3.66 2.46 0 .8.31 1.43.93 1.89.62.46 1.48.69 2.58.69zm11.61-20.22h2.88V30h-2.88V7.74zm21.54 14.4c0 .22-.02.51-.06.87h-12.9c.18 1.4.795 2.525 1.845 3.375 1.05.85 2.355 1.275 3.915 1.275 1.9 0 3.43-.64 4.59-1.92l1.59 1.86a6.964 6.964 0 0 1-2.685 1.92c-1.07.44-2.265.66-3.585.66-1.68 0-3.17-.345-4.47-1.035-1.3-.69-2.305-1.655-3.015-2.895s-1.065-2.64-1.065-4.2c0-1.54.345-2.93 1.035-4.17a7.414 7.414 0 0 1 2.85-2.895c1.21-.69 2.575-1.035 4.095-1.035 1.52 0 2.875.345 4.065 1.035a7.268 7.268 0 0 1 2.79 2.895c.67 1.24 1.005 2.66 1.005 4.26zm-7.86-5.76c-1.38 0-2.535.42-3.465 1.26-.93.84-1.475 1.94-1.635 3.3h10.2c-.16-1.34-.705-2.435-1.635-3.285-.93-.85-2.085-1.275-3.465-1.275zm15.21 13.8c-1.3 0-2.55-.175-3.75-.525-1.2-.35-2.14-.795-2.82-1.335l1.2-2.28c.7.5 1.55.9 2.55 1.2 1 .3 2.01.45 3.03.45 2.52 0 3.78-.72 3.78-2.16 0-.48-.17-.86-.51-1.14-.34-.28-.765-.485-1.275-.615-.51-.13-1.235-.275-2.175-.435-1.28-.2-2.325-.43-3.135-.69-.81-.26-1.505-.7-2.085-1.32-.58-.62-.87-1.49-.87-2.61 0-1.44.6-2.595 1.8-3.465 1.2-.87 2.81-1.305 4.83-1.305 1.06 0 2.12.13 3.18.39s1.93.61 2.61 1.05L285 17.67c-1.3-.84-2.83-1.26-4.59-1.26-1.22 0-2.15.2-2.79.6-.64.4-.96.93-.96 1.59 0 .52.18.93.54 1.23.36.3.805.52 1.335.66.53.14 1.275.3 2.235.48 1.28.22 2.315.455 3.105.705.79.25 1.465.675 2.025 1.275.56.6.84 1.44.84 2.52 0 1.44-.615 2.585-1.845 3.435-1.23.85-2.905 1.275-5.025 1.275z"/>
        <path fill="#565656" d="M129 6h1v28h-1z"/>
    </g>
</svg>
