<svg width="24" height="24" viewBox="0 0 24 24" fill="none" xmlns="http://www.w3.org/2000/svg">
<path fill-rule="evenodd" clip-rule="evenodd" d="M7.207 9.70699C6.816 10.098 6.184 10.098 5.793 9.70699L2.793 6.70699C2.402 6.31599 2.402 5.68399 2.793 5.293L5.793 2.293C5.988 2.09799 6.244 1.99999 6.5 1.99999C6.756 1.99999 7.012 2.09799 7.207 2.293C7.598 2.68399 7.598 3.31599 7.207 3.70699L5.914 4.99999H17.91C19.89 4.99999 21.5 6.58299 21.5 8.52899V11C21.5 11.553 21.053 12 20.5 12C19.947 12 19.5 11.553 19.5 11V8.52899C19.5 7.68599 18.787 6.99999 17.91 6.99999L5.914 6.99999L7.207 8.29299C7.598 8.68399 7.598 9.31599 7.207 9.70699ZM18.0858 19H6.0898C4.1108 19 2.4998 17.417 2.4998 15.471V13C2.4998 12.447 2.9468 12 3.4998 12C4.0528 12 4.4998 12.447 4.4998 13V15.471C4.4998 16.313 5.2128 17 6.0898 17H18.0858L16.7928 15.707C16.4028 15.316 16.4028 14.684 16.7928 14.293C16.9878 14.098 17.2438 14 17.4998 14C17.7558 14 18.0118 14.098 18.2068 14.293L21.2068 17.293C21.5978 17.684 21.5978 18.316 21.2068 18.707L18.2068 21.707C17.8168 22.098 17.1838 22.098 16.7928 21.707C16.4028 21.316 16.4028 20.684 16.7928 20.293L18.0858 19Z" fill="#222B45"/>
</svg>
