<svg width="24" height="24" viewBox="0 0 24 24" fill="none" xmlns="http://www.w3.org/2000/svg">
<path fill-rule="evenodd" clip-rule="evenodd" d="M14.0251 2.40378L11.9038 4.5251C11.1228 5.30615 11.1228 6.57248 11.9038 7.35353L13.6235 9.07321C13.5033 9.12208 13.3906 9.19534 13.293 9.29297L9.293 13.293C9.23381 13.3522 9.18358 13.4169 9.14231 13.4854L7.7071 12.0502C6.92605 11.2692 5.65972 11.2692 4.87868 12.0502L2.75736 14.1715C1.97631 14.9526 1.97631 16.2189 2.75736 17L7 21.2426C7.78105 22.0237 9.04738 22.0237 9.82842 21.2426L11.9497 19.1213C12.7308 18.3402 12.7308 17.0739 11.9497 16.2929L10.5145 14.8576C10.5831 14.8163 10.6479 14.7661 10.707 14.707L14.707 10.707C14.8046 10.6093 14.8779 10.4967 14.9268 10.3765L16.1464 11.5962C16.9275 12.3772 18.1938 12.3772 18.9749 11.5962L21.0962 9.47485C21.8772 8.6938 21.8772 7.42747 21.0962 6.64642L16.8536 2.40378C16.0725 1.62273 14.8062 1.62273 14.0251 2.40378ZM13.318 5.93931L15.4393 3.81799L19.682 8.06063L17.5607 10.182L13.318 5.93931ZM6.29289 13.4644L4.17157 15.5858L8.41421 19.8284L10.5355 17.7071L6.29289 13.4644Z" fill="#222B45"/>
</svg>
