<svg width="24" height="24" viewBox="0 0 24 24" fill="none" xmlns="http://www.w3.org/2000/svg">
<path fill-rule="evenodd" clip-rule="evenodd" d="M13 21C14.654 21 16 19.654 16 18V16H18C19.654 16 21 14.654 21 13V11C21 9.346 19.654 8 18 8H16V6C16 4.346 14.654 3 13 3H11C9.346 3 8 4.346 8 6V8H6C4.346 8 3 9.346 3 11V13C3 14.654 4.346 16 6 16H8V18C8 19.654 9.346 21 11 21H13ZM11 19C10.449 19 10 18.551 10 18V14H6C5.449 14 5 13.551 5 13V11C5 10.449 5.449 10 6 10H10V6C10 5.449 10.449 5 11 5H13C13.551 5 14 5.449 14 6V10H18C18.551 10 19 10.449 19 11V13C19 13.551 18.551 14 18 14H14V18C14 18.551 13.551 19 13 19H11Z" fill="#222B45"/>
</svg>
