<svg width="24" height="24" viewBox="0 0 24 24" fill="none" xmlns="http://www.w3.org/2000/svg">
<path fill-rule="evenodd" clip-rule="evenodd" d="M18.3232 4C18.0736 4 17.8251 4.03493 17.5852 4.10377L6.81955 7.19199C6.72989 7.21771 6.63708 7.23076 6.54381 7.23076H5C3.34315 7.23076 2 8.5739 2 10.2308V13.7692C2 15.4261 3.34315 16.7692 5 16.7692H6V17V19C6 19.5523 6.44772 20 7 20C7.55228 20 8 19.5523 8 19V17.1466L17.5852 19.8962C17.8251 19.9651 18.0736 20 18.3232 20C19.8016 20 21 18.8016 21 17.3232V14.6655C21.5978 14.2333 22 13.4254 22 12.5C22 11.5746 21.5978 10.7667 21 10.3345V6.67676C21 5.19843 19.8016 4 18.3232 4ZM18.1366 6.02624C18.1973 6.00883 18.2601 6 18.3232 6C18.697 6 19 6.30299 19 6.67676V17.3232C19 17.697 18.697 18 18.3232 18C18.2601 18 18.1973 17.9912 18.1366 17.9738L8 15.066V8.93403L18.1366 6.02624ZM6 9.23076V14.7692H5C4.44771 14.7692 4 14.3215 4 13.7692V10.2308C4 9.67847 4.44772 9.23076 5 9.23076H6Z" fill="#000018" fill-opacity="0.84"/>
</svg>
