<svg width="24" height="24" viewBox="0 0 24 24" fill="none" xmlns="http://www.w3.org/2000/svg">
<path fill-rule="evenodd" clip-rule="evenodd" d="M19.7397 4.26076C19.3927 3.91276 18.8297 3.91276 18.4827 4.26076L4.26069 18.4828C4.08669 18.6568 3.99969 18.8838 3.99969 19.1118C3.99969 19.3388 4.08669 19.5668 4.26069 19.7398C4.60769 20.0868 5.16969 20.0868 5.51769 19.7398L19.7397 5.51776C20.0867 5.16976 20.0867 4.60776 19.7397 4.26076ZM16 19.0001C15.173 19.0001 14.5 18.3271 14.5 17.5001C14.5 16.6731 15.173 16.0001 16 16.0001C16.827 16.0001 17.5 16.6731 17.5 17.5001C17.5 18.3271 16.827 19.0001 16 19.0001ZM16 14.0001C14.07 14.0001 12.5 15.5701 12.5 17.5001C12.5 19.4301 14.07 21.0001 16 21.0001C17.93 21.0001 19.5 19.4301 19.5 17.5001C19.5 15.5701 17.93 14.0001 16 14.0001ZM7.99999 6.00006C8.82699 6.00006 9.49999 6.67306 9.49999 7.50006C9.49999 8.32706 8.82699 9.00006 7.99999 9.00006C7.17299 9.00006 6.49999 8.32706 6.49999 7.50006C6.49999 6.67306 7.17299 6.00006 7.99999 6.00006ZM7.99999 11.0001C9.92999 11.0001 11.5 9.43006 11.5 7.50006C11.5 5.57006 9.92999 4.00006 7.99999 4.00006C6.06999 4.00006 4.49999 5.57006 4.49999 7.50006C4.49999 9.43006 6.06999 11.0001 7.99999 11.0001Z" fill="#222B45"/>
</svg>
