<svg width="24" height="24" viewBox="0 0 24 24" fill="none" xmlns="http://www.w3.org/2000/svg">
<path fill-rule="evenodd" clip-rule="evenodd" d="M15.8018 7.23237L16.5348 6.50037L15.8018 5.76737C15.3998 5.36437 15.3998 4.70537 15.8018 4.30137C16.2048 3.89937 16.8638 3.89937 17.2678 4.30137L17.9998 5.03537L18.7328 4.30137C19.1358 3.89937 19.7948 3.89937 20.1978 4.30137C20.6008 4.70537 20.6008 5.36437 20.1978 5.76737L19.4648 6.50037L20.1978 7.23237C20.6008 7.63537 20.6008 8.29437 20.1978 8.69837C19.7948 9.10037 19.1358 9.10037 18.7328 8.69837L17.9998 7.96437L17.2678 8.69837C16.8638 9.10037 16.2048 9.10037 15.8018 8.69837C15.3998 8.29437 15.3998 7.63537 15.8018 7.23237ZM17.4008 20.0004C10.0118 20.0004 3.99982 13.9884 3.99982 6.59937C3.99982 5.16637 5.16582 4.00037 6.59982 4.00037C6.70882 4.00037 6.81782 4.00637 6.92782 4.02137L7.98882 8.64137C7.81282 8.73337 7.62082 8.83337 7.44382 8.92637C6.57282 9.38137 5.94382 9.71137 6.26582 10.5134C7.44082 13.8604 10.1398 16.5594 13.4468 17.7194C14.2938 18.0584 14.6178 17.4264 15.0728 16.5564C15.1668 16.3784 15.2668 16.1874 15.3588 16.0114L19.9788 17.0724C19.9928 17.1794 19.9998 17.2894 19.9998 17.4004C19.9998 18.8344 18.8338 20.0004 17.4008 20.0004ZM21.9358 16.6384C21.8958 16.3884 21.8328 16.1434 21.7508 15.9084C21.6388 15.5834 21.3658 15.3384 21.0308 15.2614L15.0668 13.8924C14.7378 13.8194 14.3938 13.9124 14.1508 14.1454C14.0078 14.2824 14.0048 14.2854 13.3548 15.5274C11.2148 14.5524 9.46582 12.8064 8.47482 10.6444C9.71382 9.99537 9.71782 9.99237 9.85482 9.84937C10.0878 9.60637 10.1828 9.26137 10.1078 8.93337L8.73882 2.96937C8.66082 2.63337 8.41682 2.36137 8.09182 2.24937C7.85482 2.16637 7.60882 2.10437 7.36482 2.06537C7.11582 2.02237 6.86082 2.00037 6.59982 2.00037C4.06382 2.00037 1.99982 4.06337 1.99982 6.59937C1.99982 15.0914 8.90782 22.0004 17.4008 22.0004C19.9368 22.0004 21.9998 19.9364 21.9998 17.4004C21.9998 17.1414 21.9778 16.8864 21.9358 16.6384Z" fill="#222B45"/>
</svg>
