<svg width="24" height="24" viewBox="0 0 24 24" fill="none" xmlns="http://www.w3.org/2000/svg">
<path d="M21.9229 4.60262C21.7687 4.23636 21.4217 4.00503 21.0361 4.00503H19.9952V2.96407C19.9952 2.56889 19.7639 2.2219 19.3976 2.07732C19.0313 1.93274 18.6265 2.00985 18.347 2.28937L15.9373 4.69901C15.7542 4.88214 15.6578 5.1231 15.6578 5.38334V6.99298L15.6 7.05081C14.1157 5.85563 12.2843 5.20985 10.3952 5.20985C5.76867 5.20985 2 8.97853 2 13.605C2 18.2315 5.76867 22.0002 10.3952 22.0002C15.0217 22.0002 18.7904 18.2315 18.7904 13.605C18.7904 11.7159 18.1446 9.87491 16.9687 8.39057L17.0169 8.34238H18.6361C18.8867 8.34238 19.1374 8.23636 19.3205 8.06286L21.7301 5.65322C21.9904 5.37371 22.0771 4.96889 21.9229 4.60262ZM18.7518 5.89419L18.2313 6.41467H17.5855V5.76889L18.106 5.24841C18.1928 5.55684 18.4434 5.7978 18.7518 5.89419ZM10.3952 16.4773C8.81446 16.4773 7.52289 15.1858 7.52289 13.605C7.52289 12.0243 8.81446 10.7327 10.3952 10.7327C10.8289 10.7327 11.2434 10.8291 11.6289 11.0123L9.71084 12.9207C9.33494 13.2966 9.33494 13.9038 9.71084 14.2797C10.0675 14.646 10.7133 14.646 11.0795 14.2797L12.988 12.3713C13.1711 12.7568 13.2675 13.1713 13.2675 13.605C13.2675 15.1954 11.9759 16.4773 10.3952 16.4773ZM12.853 9.77853C12.1108 9.2966 11.2723 9.03636 10.3952 9.03636C7.87952 9.03636 5.82651 11.0894 5.82651 13.605C5.82651 16.1207 7.87952 18.1737 10.3952 18.1737C12.9108 18.1737 14.9639 16.1207 14.9639 13.605C14.9639 12.7279 14.7133 11.8894 14.2217 11.1376L15.5904 9.76889C16.4096 10.8773 16.853 12.2267 16.853 13.605C16.853 17.1713 13.9518 20.0725 10.3855 20.0725C6.81928 20.0725 3.92771 17.1713 3.92771 13.605C3.92771 10.0388 6.82892 7.13756 10.3952 7.13756C11.7735 7.13756 13.1229 7.58094 14.2313 8.40021L12.853 9.77853Z" fill="#222B45"/>
</svg>
