<svg width="24" height="24" viewBox="0 0 24 24" fill="none" xmlns="http://www.w3.org/2000/svg">
<path fill-rule="evenodd" clip-rule="evenodd" d="M13 10H9C8.45 10 8 10.45 8 11C8 11.55 8.45 12 9 12H13C13.55 12 14 11.55 14 11C14 10.45 13.55 10 13 10Z" fill="#231F20"/>
<path fill-rule="evenodd" clip-rule="evenodd" d="M17.3257 15.8987L22.7057 21.2787C22.8948 21.468 23.001 21.7246 23.0009 21.9921C23.0008 22.2596 22.8945 22.5161 22.7052 22.7052C22.516 22.8943 22.2594 23.0005 21.9919 23.0004C21.7244 23.0003 21.4678 22.894 21.2787 22.7047L15.8987 17.3247C14.2905 18.5704 12.268 19.1566 10.2429 18.9641C8.21772 18.7716 6.34198 17.8148 4.99723 16.2884C3.65248 14.7619 2.93973 12.7806 3.004 10.7473C3.06826 8.71402 3.9047 6.7816 5.34315 5.34315C6.7816 3.90469 8.71402 3.06826 10.7473 3.004C12.7806 2.93973 14.7619 3.65248 16.2884 4.99723C17.8148 6.34198 18.7716 8.21772 18.9641 10.2429C19.1566 12.268 18.5704 14.2905 17.3247 15.8987H17.3257ZM11.0007 16.9997C12.592 16.9997 14.1182 16.3676 15.2434 15.2424C16.3686 14.1172 17.0007 12.591 17.0007 10.9997C17.0007 9.40844 16.3686 7.88232 15.2434 6.7571C14.1182 5.63189 12.592 4.99974 11.0007 4.99974C9.40944 4.99974 7.88332 5.63189 6.7581 6.7571C5.63289 7.88232 5.00074 9.40844 5.00074 10.9997C5.00074 12.591 5.63289 14.1172 6.7581 15.2424C7.88332 16.3676 9.40944 16.9997 11.0007 16.9997Z" fill="#000018" fill-opacity="0.84"/>
</svg>
